<svg width="222" height="72" viewBox="0 0 222 72" fill="none" xmlns="http://www.w3.org/2000/svg">
<g clip-path="url(#clip0_2678_489)">
<path d="M56.1227 60.2147L63.14 63.6439C64.8833 64.4957 66.9926 63.7382 67.68 61.9237C69.6891 56.6201 71.2689 50.2837 71.8041 43.7601C72.4151 36.314 71.6599 28.7006 68.7035 22.1125L68.6994 22.1143C68.5679 21.8305 68.4344 21.5474 68.2987 21.2652C67.2815 19.3139 65.3761 16.9205 62.5702 15.3369C59.4075 13.552 55.0139 12.7442 49.2484 14.9038C48.0252 15.362 46.78 15.954 45.5312 16.6603C47.0997 19.3288 48.2234 22.9278 48.3126 27.6733C48.3933 31.9623 47.6975 36.024 46.6315 39.6426L57.1558 43.5501C59.2936 44.3439 60.6933 46.4571 60.2941 48.7023C59.7324 51.8611 58.7428 54.9355 57.3594 57.8501C56.9853 58.6381 56.574 59.4293 56.1227 60.2147Z" fill="#0473FF"/>
<path d="M21.8652 57.3686C22.7281 57.1088 23.6393 56.7331 24.5957 56.2106C28.6457 53.9979 31.7087 50.3846 33.8862 46.8399C35.3391 44.4748 36.4214 42.1019 37.1526 40.1195C37.443 39.3323 38.3118 38.9052 39.0985 39.1973L55.9179 45.442C57.392 45.9893 58.3207 47.4714 58.0029 49.0114C57.5233 51.335 56.6845 54.1116 55.3586 56.9051C53.2786 61.287 50.0374 65.6341 45.1875 68.3819C41.1801 70.6523 37.0816 71.8235 33.2503 71.9995C29.0759 71.2932 26.3373 69.4813 24.5926 67.0616C22.7454 64.4997 21.9241 61.1329 21.8652 57.3686Z" fill="#0473FF"/>
<path d="M32.0031 0.322354C42.3172 -0.88462 49.9809 1.39728 55.798 5.50473C58.8889 7.68718 61.4846 10.4037 63.686 13.4328L63.6624 13.4194C59.9076 11.3004 54.828 10.4605 48.4728 12.841C39.9413 16.0368 30.744 25.0421 25.8474 34.2257C22.6714 40.1824 19.5394 49.3163 19.6578 57.3778C19.7171 61.4186 20.595 65.2918 22.8011 68.3514C23.5691 69.4166 24.4875 70.3684 25.5672 71.1872C17.7107 69.2328 7.82516 63.791 2.49764 51.2475C-2.15156 40.3011 0.0590149 28.184 6.08264 18.4449C12.1155 8.69106 21.8578 1.50958 32.0031 0.322354Z" fill="#0473FF"/>
<path d="M212.111 10.5879H221.111V60.5879H212.111V10.5879Z" fill="#0473FF"/>
<path d="M197.251 23.3786H206.971V60.5879H197.251V23.3786ZM197.111 10.5879H207.111V19.343H197.111V10.5879Z" fill="#0473FF"/>
<path d="M166.724 49.1879C166.724 50.6546 167.266 51.7657 168.349 52.5212C169.478 53.2323 170.989 53.5879 172.885 53.5879C175.909 53.5879 178.323 52.7434 180.129 51.0546C181.934 49.3657 182.837 47.1212 182.837 44.3212V42.5879L172.479 44.5212C170.403 44.9212 168.913 45.499 168.011 46.2546C167.153 46.9657 166.724 47.9434 166.724 49.1879ZM157.111 50.4546C157.111 47.3879 158.149 45.0101 160.225 43.3212C162.347 41.5879 165.551 40.3434 169.839 39.5879L182.837 37.2546V36.9879C182.837 34.5434 182.16 32.7212 180.806 31.5212C179.452 30.3212 177.556 29.7212 175.119 29.7212C172.637 29.7212 170.741 30.3212 169.432 31.5212C168.169 32.7212 167.401 34.4101 167.131 36.5879H157.585C157.991 32.0101 159.774 28.5434 162.933 26.1879C166.093 23.7879 170.177 22.5879 175.187 22.5879C180.557 22.5879 184.71 23.899 187.643 26.5212C190.622 29.099 192.111 32.8323 192.111 37.7212V59.7212H183.378L183.175 54.3879C182.047 56.1657 180.264 57.6546 177.827 58.8546C175.435 60.0101 172.659 60.5879 169.5 60.5879C167.83 60.5879 166.228 60.3879 164.694 59.9879C163.204 59.5879 161.895 58.9879 160.767 58.1879C159.639 57.3434 158.736 56.299 158.059 55.0546C157.427 53.7657 157.111 52.2323 157.111 50.4546Z" fill="#0473FF"/>
<path d="M119.111 23.5879H128.997L138.544 52.0861L148.158 23.5879H158.111L144.57 60.5879H132.585L119.111 23.5879Z" fill="#0473FF"/>
<path d="M93.7245 49.1879C93.7245 50.6546 94.2661 51.7657 95.3492 52.5212C96.4775 53.2323 97.9895 53.5879 99.885 53.5879C102.909 53.5879 105.323 52.7434 107.129 51.0546C108.934 49.3657 109.837 47.1212 109.837 44.3212V42.5879L99.4788 44.5212C97.4028 44.9212 95.9134 45.499 95.0107 46.2546C94.1532 46.9657 93.7245 47.9434 93.7245 49.1879ZM84.1113 50.4546C84.1113 47.3879 85.1494 45.0101 87.2254 43.3212C89.3467 41.5879 92.551 40.3434 96.8386 39.5879L109.837 37.2546V36.9879C109.837 34.5434 109.16 32.7212 107.806 31.5212C106.452 30.3212 104.556 29.7212 102.119 29.7212C99.6368 29.7212 97.7412 30.3212 96.4324 31.5212C95.1687 32.7212 94.4015 34.4101 94.1307 36.5879H84.5852C84.9914 32.0101 86.7741 28.5434 89.9334 26.1879C93.0926 23.7879 97.1771 22.5879 102.187 22.5879C107.557 22.5879 111.71 23.899 114.643 26.5212C117.622 29.099 119.111 32.8323 119.111 37.7212V59.7212H110.378L110.175 54.3879C109.047 56.1657 107.264 57.6546 104.827 58.8546C102.435 60.0101 99.6594 60.5879 96.5001 60.5879C94.8302 60.5879 93.228 60.3879 91.6935 59.9879C90.2042 59.5879 88.8953 58.9879 87.767 58.1879C86.6387 57.3434 85.7361 56.299 85.0591 55.0546C84.4273 53.7657 84.1113 52.2323 84.1113 50.4546Z" fill="#0473FF"/>
</g>
<defs>
<clipPath id="clip0_2678_489">
<rect width="221.111" height="71.9995" fill="white"/>
</clipPath>
</defs>
</svg>
